<svg width="10" height="16" viewBox="0 0 10 16" fill="none" xmlns="http://www.w3.org/2000/svg">
<path d="M9.14464 7.37568L2.02444 0.255608C1.85976 0.090796 1.63992 0 1.40552 0C1.17111 0 0.951277 0.090796 0.786595 0.255608L0.262242 0.779831C-0.0789586 1.12142 -0.0789586 1.6766 0.262242 2.01767L6.24125 7.99668L0.255608 13.9823C0.0909261 14.1471 0 14.3668 0 14.6011C0 14.8357 0.0909261 15.0554 0.255608 15.2203L0.779961 15.7444C0.944773 15.9092 1.16448 16 1.39888 16C1.63329 16 1.85312 15.9092 2.0178 15.7444L9.14464 8.61782C9.30971 8.45248 9.40038 8.23174 9.39986 7.99707C9.40038 7.7615 9.30971 7.54088 9.14464 7.37568Z" fill="#465A51"/>
</svg>