<svg width="30" height="29" viewBox="0 0 30 29" fill="none" xmlns="http://www.w3.org/2000/svg">
<path d="M12.0602 3.86512C9.43923 1.1834 4.31026 0.872437 0.681159 0.872437C0.30498 0.872437 0 1.18464 0 1.56973C0 5.2862 0.303766 10.5367 2.92342 13.2198C4.15337 14.3412 5.76109 14.9288 7.40667 14.8585C9.10341 14.9269 10.7636 14.3423 12.0602 13.2198C14.0124 11.22 14.3706 6.23033 12.0602 3.86512Z" fill="#DFD9CD"/>
<path d="M29.3188 3.63086C25.6884 3.63086 20.5594 3.94182 17.9384 6.62355C15.6225 8.99431 15.9862 13.977 17.9384 15.9768C19.2354 17.0995 20.8961 17.6841 22.5933 17.6155C24.2388 17.6857 25.8465 17.0981 27.0765 15.9768C29.6975 13.2937 29.9999 8.04325 29.9999 4.32672C29.9992 3.94222 29.6945 3.63086 29.3188 3.63086Z" fill="#DFD9CD"/>
<path d="M14.3039 28.7635C13.9277 28.7635 13.6227 28.4513 13.6227 28.0662C13.6227 13.277 8.32487 9.56606 6.3305 8.17009C6.08995 8.01287 5.86218 7.83612 5.64934 7.64158C5.38798 7.3646 5.39551 6.92316 5.66607 6.6556C5.93005 6.39458 6.34851 6.39458 6.61249 6.6556C6.76632 6.78876 6.92928 6.91042 7.10016 7.01958C8.8711 8.25932 13.0424 11.1809 14.4851 20.7643C15.5999 15.754 18.9048 11.5475 23.4461 9.35825C23.7939 9.19077 24.209 9.32491 24.3997 9.66647C24.572 9.9773 24.4656 10.3722 24.162 10.5486C24.1506 10.5552 24.139 10.5615 24.1272 10.5674L24.0169 10.6204C16.5489 14.2142 14.9809 22.0906 14.9809 28.0663C14.981 28.4497 14.6785 28.7611 14.3039 28.7635Z" fill="white"/>
</svg>
