<svg width="200" height="34" viewBox="0 0 200 34" fill="none" xmlns="http://www.w3.org/2000/svg">
<path d="M11.966 2.94334C9.36551 0.305835 4.2766 0 0.675839 0C0.302597 0 0 0.307057 0 0.685799C0 4.34097 0.301393 9.50488 2.90059 12.1438C4.12093 13.2467 5.71609 13.8246 7.34882 13.7554C9.03231 13.8227 10.6795 13.2477 11.966 12.1438C13.9029 10.1769 14.2584 5.26954 11.966 2.94334Z" fill="#718F82"/>
<path d="M29.0899 2.71292C25.4878 2.71292 20.3989 3.01876 17.7983 5.65626C15.5005 7.98792 15.8614 12.8885 17.7983 14.8553C19.0852 15.9594 20.7329 16.5344 22.4169 16.4669C24.0495 16.536 25.6447 15.958 26.8651 14.8553C29.4656 12.2165 29.7657 7.05255 29.7657 3.39731C29.765 3.01914 29.4626 2.71292 29.0899 2.71292Z" fill="#718F82"/>
<path d="M14.1922 27.4312C13.8189 27.4312 13.5163 27.1241 13.5163 26.7454C13.5163 12.2 8.25984 8.5503 6.28105 7.17735C6.04238 7.02273 5.81638 6.84888 5.60521 6.65755C5.34589 6.38515 5.35336 5.95099 5.62181 5.68784C5.88373 5.43112 6.29892 5.43112 6.56084 5.68784C6.71347 5.8188 6.87516 5.93845 7.0447 6.04582C8.80181 7.26511 12.9405 10.1386 14.3719 19.5638C15.4781 14.6362 18.7571 10.499 23.263 8.34592C23.608 8.1812 24.0199 8.31313 24.2091 8.64905C24.3801 8.95476 24.2745 9.34314 23.9732 9.51667C23.962 9.52316 23.9504 9.52933 23.9388 9.53512L23.8293 9.58726C16.4196 13.1218 14.8639 20.8683 14.8639 26.7454C14.864 27.1225 14.5638 27.4288 14.1922 27.4312Z" fill="#465A51"/>
<path d="M40.6357 8.06024V6.93852H48.6501V8.06024H46.7156V25.4469H48.6501V26.5686H40.6357V25.4469H42.5702V8.06024H40.6357Z" fill="#465A51"/>
<path d="M53.7394 12.5471C55.2501 12.5471 56.6135 13.0145 57.8295 13.9493C58.5296 13.2762 59.2481 12.8089 59.985 12.5471C60.722 12.2667 61.6616 12.1265 62.8039 12.1265C63.9646 12.1265 64.9042 12.5004 65.6227 13.2482C66.3597 13.9773 66.7281 14.9775 66.7281 16.2488V23.4558C66.7281 23.9606 66.8479 24.3626 67.0874 24.6617C67.3269 24.9421 67.6954 25.0823 68.1928 25.0823C68.6903 25.0823 69.2614 24.8112 69.9063 24.2691L70.4037 24.9421C68.9298 26.3069 67.4559 26.9893 65.982 26.9893C63.7159 26.9893 62.5828 25.6151 62.5828 22.8669V15.6599C62.5828 15.0803 62.4078 14.6316 62.0577 14.3138C61.7077 13.996 61.2194 13.8371 60.593 13.8371C59.985 13.8371 59.3771 14.0895 58.7691 14.5943C58.1795 15.099 57.8847 15.7534 57.8847 16.5573V26.5686H53.7394V13.6688C52.9103 13.6688 52.1733 13.8091 51.5285 14.0895L51.1416 13.0519C51.9338 12.7154 52.7998 12.5471 53.7394 12.5471Z" fill="#465A51"/>
<path d="M74.6881 14.8466C74.2459 14.1549 74.0248 13.538 74.0248 12.9958C74.0248 12.4536 74.2275 11.9769 74.6328 11.5656C75.0566 11.1356 75.5632 10.9206 76.1528 10.9206C76.7423 10.9206 77.2398 11.1356 77.6451 11.5656C78.0689 11.9769 78.2807 12.4723 78.2807 13.0519C78.2807 13.6314 77.9952 14.2484 77.424 14.9027C78.9348 16.0244 80.0955 17.1275 80.9061 18.2118C81.7168 19.2774 82.1221 20.5207 82.1221 21.9415C82.1221 23.3437 81.597 24.5402 80.5469 25.531C79.4967 26.5032 78.0044 26.9893 76.0699 26.9893C75.1855 26.9893 74.292 26.793 73.3892 26.4004C72.5049 26.0077 71.8324 25.5217 71.3718 24.9421L72.0074 24.2691C72.8181 24.9234 73.6932 25.2506 74.6328 25.2506C75.5724 25.2506 76.337 24.9982 76.9266 24.4934C77.5346 23.97 77.8386 23.1661 77.8386 22.0817C77.8386 20.3618 77.2122 18.567 75.9593 16.6975L71.7863 21.9976L71.0955 21.3807C72.4957 19.0811 73.6932 16.9031 74.6881 14.8466Z" fill="#465A51"/>
<path d="M84.0188 14.0895V12.9397H86.2849V8.90153H90.4303V12.9397H93.5531V14.0895H90.4303V23.4558C90.4303 23.9606 90.55 24.3626 90.7896 24.6617C91.0291 24.9421 91.3975 25.0823 91.895 25.0823C92.3924 25.0823 92.9636 24.8112 93.6084 24.2691L94.1058 24.9421C92.6319 26.3069 91.158 26.9893 89.6841 26.9893C87.418 26.9893 86.2849 25.6151 86.2849 22.8669V14.0895H84.0188Z" fill="#465A51"/>
<path d="M111.152 12.5471V23.4558C111.152 23.9606 111.272 24.3626 111.512 24.6617C111.751 24.9421 112.12 25.0823 112.617 25.0823C113.114 25.0823 113.686 24.8112 114.33 24.2691L114.828 24.9421C113.354 26.3069 111.88 26.9893 110.406 26.9893C108.656 26.9893 107.578 26.1573 107.173 24.4934C106.215 26.1573 104.805 26.9893 102.945 26.9893C100.826 26.9893 99.2137 26.2975 98.1083 24.9141C97.0028 23.5119 96.4501 21.7359 96.4501 19.5859C96.4501 17.4172 97.0397 15.6318 98.2188 14.2297C99.4164 12.8275 101.084 12.1265 103.221 12.1265C104.861 12.1265 106.123 12.7902 107.007 14.1175V12.5471H111.152ZM101.507 15.2953C100.992 16.3423 100.734 17.7631 100.734 19.5579C100.734 21.3526 100.992 22.7735 101.507 23.8204C102.023 24.8673 102.806 25.3908 103.856 25.3908C104.925 25.3908 105.736 24.8673 106.288 23.8204C106.86 22.7548 107.145 21.3339 107.145 19.5579C107.145 17.7818 106.86 16.3703 106.288 15.3234C105.736 14.2577 104.925 13.7249 103.856 13.7249C102.806 13.7249 102.023 14.2484 101.507 15.2953Z" fill="#465A51"/>
<path d="M126.555 30.2703H121.443C118.734 30.2703 117.38 29.1205 117.38 26.821C117.38 25.5684 118.062 24.1569 119.425 22.5865C117.933 21.4835 117.187 19.9598 117.187 18.0155C117.187 16.3516 117.785 14.9588 118.983 13.8371C120.18 12.6967 121.747 12.1265 123.681 12.1265C125.081 12.1265 126.325 12.4536 127.412 13.108C128.204 12.3789 128.748 11.4254 129.042 10.2476L130.12 10.528C129.788 11.8367 129.181 12.921 128.296 13.781C129.549 14.9401 130.175 16.3516 130.175 18.0155C130.175 19.6794 129.577 21.0815 128.379 22.2219C127.182 23.3437 125.615 23.9045 123.681 23.9045C122.354 23.9045 121.203 23.6334 120.227 23.0913C119.582 24.0073 119.259 24.6991 119.259 25.1665C119.259 26.1012 119.794 26.5686 120.862 26.5686H125.975C128.683 26.5686 130.037 27.5782 130.037 29.5973C130.037 31.0368 129.365 32.5044 128.02 34L127.357 33.355C127.891 32.7007 128.158 32.1398 128.158 31.6724C128.158 31.2237 128.011 30.8779 127.716 30.6348C127.439 30.3918 127.053 30.2703 126.555 30.2703ZM122.023 14.6223C121.654 15.501 121.47 16.632 121.47 18.0155C121.47 19.399 121.654 20.53 122.023 21.4087C122.41 22.2874 122.972 22.7267 123.709 22.7267C124.446 22.7267 124.998 22.2874 125.367 21.4087C125.754 20.53 125.947 19.399 125.947 18.0155C125.947 16.632 125.754 15.501 125.367 14.6223C124.998 13.7436 124.446 13.3043 123.709 13.3043C122.972 13.3043 122.41 13.7436 122.023 14.6223Z" fill="#718F82"/>
<path d="M142.974 12.1265C143.527 12.1265 143.803 12.6593 143.803 13.7249V23.4558C143.803 23.9606 143.923 24.3626 144.162 24.6617C144.402 24.9421 144.77 25.0823 145.268 25.0823C145.765 25.0823 146.336 24.8112 146.981 24.2691L147.479 24.9421C146.005 26.3069 144.531 26.9893 143.057 26.9893C140.791 26.9893 139.658 25.6151 139.658 22.8669V14.9869C138.792 15.3421 137.742 15.5851 136.507 15.716C136.36 17.4359 135.872 19.1559 135.043 20.8759L133.909 20.5394C134.425 19.212 134.702 17.6322 134.739 15.8001C134.038 15.8001 133.467 15.5945 133.025 15.1832C132.601 14.7719 132.389 14.2671 132.389 13.6688C132.389 13.0519 132.592 12.5378 132.997 12.1265C133.421 11.6965 133.928 11.4815 134.517 11.4815C135.125 11.4815 135.632 11.6965 136.037 12.1265C136.443 12.5565 136.645 13.108 136.645 13.781H137.17C138.626 13.781 140.174 13.3697 141.813 12.5471C142.348 12.2667 142.734 12.1265 142.974 12.1265Z" fill="#718F82"/>
<path d="M154.502 20.0907C155.699 19.9785 156.62 19.5205 157.265 18.7166C157.929 17.894 158.26 17.0714 158.26 16.2488C158.26 15.4075 158.076 14.7625 157.707 14.3138C157.357 13.8651 156.814 13.6408 156.077 13.6408C155.358 13.6408 154.668 14.1643 154.004 15.2112C153.341 16.2581 153.009 17.6603 153.009 19.4176C153.009 21.175 153.323 22.5865 153.949 23.6521C154.575 24.7178 155.469 25.2506 156.63 25.2506C158.398 25.2506 159.9 24.5495 161.134 23.1474L161.908 23.6521C161.282 24.6617 160.453 25.4749 159.421 26.0919C158.389 26.6901 157.228 26.9893 155.939 26.9893C153.746 26.9893 151.996 26.2601 150.688 24.8019C149.38 23.325 148.726 21.5489 148.726 19.4737C148.726 17.3986 149.417 15.6599 150.799 14.2577C152.199 12.8369 154.133 12.1265 156.602 12.1265C158.223 12.1265 159.495 12.5097 160.416 13.2762C161.337 14.0427 161.798 15.0149 161.798 16.1927C161.798 17.3705 161.282 18.4642 160.25 19.4737C159.237 20.4646 157.892 20.96 156.215 20.96C155.644 20.96 155.091 20.8946 154.557 20.7637L154.502 20.0907Z" fill="#718F82"/>
<path d="M170.991 20.0907C172.189 19.9785 173.11 19.5205 173.755 18.7166C174.418 17.894 174.75 17.0714 174.75 16.2488C174.75 15.4075 174.566 14.7625 174.197 14.3138C173.847 13.8651 173.304 13.6408 172.567 13.6408C171.848 13.6408 171.157 14.1643 170.494 15.2112C169.831 16.2581 169.499 17.6603 169.499 19.4176C169.499 21.175 169.812 22.5865 170.439 23.6521C171.065 24.7178 171.959 25.2506 173.119 25.2506C174.888 25.2506 176.39 24.5495 177.624 23.1474L178.398 23.6521C177.771 24.6617 176.942 25.4749 175.911 26.0919C174.879 26.6901 173.718 26.9893 172.428 26.9893C170.236 26.9893 168.486 26.2601 167.178 24.8019C165.87 23.325 165.216 21.5489 165.216 19.4737C165.216 17.3986 165.906 15.6599 167.288 14.2577C168.688 12.8369 170.623 12.1265 173.092 12.1265C174.713 12.1265 175.984 12.5097 176.905 13.2762C177.827 14.0427 178.287 15.0149 178.287 16.1927C178.287 17.3705 177.771 18.4642 176.74 19.4737C175.726 20.4646 174.381 20.96 172.705 20.96C172.134 20.96 171.581 20.8946 171.047 20.7637L170.991 20.0907Z" fill="#718F82"/>
<path d="M183.336 12.5471C184.846 12.5471 186.21 13.0145 187.426 13.9493C188.126 13.2762 188.844 12.8089 189.581 12.5471C190.318 12.2667 191.258 12.1265 192.4 12.1265C193.561 12.1265 194.501 12.5004 195.219 13.2482C195.956 13.9773 196.324 14.9775 196.324 16.2488V23.4558C196.324 23.9606 196.444 24.3626 196.684 24.6617C196.923 24.9421 197.292 25.0823 197.789 25.0823C198.287 25.0823 198.858 24.8112 199.503 24.2691L200 24.9421C198.526 26.3069 197.052 26.9893 195.578 26.9893C193.312 26.9893 192.179 25.6151 192.179 22.8669V15.6599C192.179 15.0803 192.004 14.6316 191.654 14.3138C191.304 13.996 190.816 13.8371 190.189 13.8371C189.581 13.8371 188.973 14.0895 188.365 14.5943C187.776 15.099 187.481 15.7534 187.481 16.5573V26.5686H183.336V13.6688C182.507 13.6688 181.77 13.8091 181.125 14.0895L180.738 13.0519C181.53 12.7154 182.396 12.5471 183.336 12.5471Z" fill="#718F82"/>
</svg>
