<svg width="32" height="32" viewBox="0 0 32 32" fill="none" xmlns="http://www.w3.org/2000/svg">
<circle cx="16" cy="16" r="16" fill="#DFD9CD"/>
<g clip-path="url(#clip0_7_45)">
<path d="M22.364 18.636C21.3837 17.6558 20.217 16.9301 18.9439 16.4909C20.3074 15.5518 21.2031 13.9802 21.2031 12.2031C21.2031 9.33413 18.869 7 16 7C13.131 7 10.7969 9.33413 10.7969 12.2031C10.7969 13.9802 11.6926 15.5518 13.0561 16.4909C11.7831 16.9301 10.6163 17.6558 9.63605 18.636C7.93618 20.3359 7 22.596 7 25H8.40625C8.40625 20.8128 11.8128 17.4062 16 17.4062C20.1872 17.4062 23.5938 20.8128 23.5938 25H25C25 22.596 24.0638 20.3359 22.364 18.636ZM16 16C13.9064 16 12.2031 14.2967 12.2031 12.2031C12.2031 10.1095 13.9064 8.40625 16 8.40625C18.0936 8.40625 19.7969 10.1095 19.7969 12.2031C19.7969 14.2967 18.0936 16 16 16Z" fill="#465A51"/>
</g>
<defs>
<clipPath id="clip0_7_45">
<rect width="18" height="18" fill="white" transform="translate(7 7)"/>
</clipPath>
</defs>
</svg>
